<?xml version="1.0" encoding="UTF-8" standalone="no"?>
<!-- Created with Inkscape (http://www.inkscape.org/) -->

<svg
   xmlns:dc="http://purl.org/dc/elements/1.1/"
   xmlns:cc="http://creativecommons.org/ns#"
   xmlns:rdf="http://www.w3.org/1999/02/22-rdf-syntax-ns#"
   xmlns:svg="http://www.w3.org/2000/svg"
   xmlns="http://www.w3.org/2000/svg"
   xmlns:sodipodi="http://sodipodi.sourceforge.net/DTD/sodipodi-0.dtd"
   xmlns:inkscape="http://www.inkscape.org/namespaces/inkscape"
   width="27.463608mm"
   height="27.078794mm"
   viewBox="0 0 27.463608 27.078794"
   version="1.1"
   id="svg8"
   style="enable-background:new"
   inkscape:version="0.92.5 (2060ec1f9f, 2020-04-08)"
   sodipodi:docname="logo.svg">
  <defs
     id="defs2">
    <inkscape:path-effect
       effect="skeletal"
       id="path-effect4655"
       is_visible="true"
       pattern="M 0,5 C 0,2.24 2.24,0 5,0 7.76,0 10,2.24 10,5 10,7.76 7.76,10 5,10 2.24,10 0,7.76 0,5 Z"
       copytype="single_stretched"
       prop_scale="1"
       scale_y_rel="false"
       spacing="0"
       normal_offset="0"
       tang_offset="0"
       prop_units="false"
       vertical_pattern="false"
       fuse_tolerance="0" />
    <inkscape:path-effect
       effect="skeletal"
       id="path-effect4651"
       is_visible="true"
       pattern="M 0,5 C 0,2.24 2.24,0 5,0 7.76,0 10,2.24 10,5 10,7.76 7.76,10 5,10 2.24,10 0,7.76 0,5 Z"
       copytype="single_stretched"
       prop_scale="1"
       scale_y_rel="false"
       spacing="0"
       normal_offset="0"
       tang_offset="0"
       prop_units="false"
       vertical_pattern="false"
       fuse_tolerance="0" />
    <inkscape:path-effect
       effect="skeletal"
       id="path-effect4647"
       is_visible="true"
       pattern="M 0,5 C 0,2.24 2.24,0 5,0 7.76,0 10,2.24 10,5 10,7.76 7.76,10 5,10 2.24,10 0,7.76 0,5 Z"
       copytype="single_stretched"
       prop_scale="1"
       scale_y_rel="false"
       spacing="0"
       normal_offset="0"
       tang_offset="0"
       prop_units="false"
       vertical_pattern="false"
       fuse_tolerance="0" />
    <inkscape:path-effect
       effect="skeletal"
       id="path-effect4643"
       is_visible="true"
       pattern="M 0,5 C 0,2.24 2.24,0 5,0 7.76,0 10,2.24 10,5 10,7.76 7.76,10 5,10 2.24,10 0,7.76 0,5 Z"
       copytype="single_stretched"
       prop_scale="1"
       scale_y_rel="false"
       spacing="0"
       normal_offset="0"
       tang_offset="0"
       prop_units="false"
       vertical_pattern="false"
       fuse_tolerance="0" />
    <inkscape:path-effect
       effect="skeletal"
       id="path-effect833"
       is_visible="true"
       pattern="m 76.824532,138.62027 c 0,0 4.917085,2.30383 5.010448,5.80403 0.02694,1.01012 0.4439,2.5373 0.160275,4.07137 0,0 -6.21425,-3.66256 -6.282916,-6.61652 -0.03902,-1.67882 1.112193,-3.25888 1.112193,-3.25888 z"
       copytype="repeated"
       prop_scale="0.39"
       scale_y_rel="false"
       spacing="-3.7"
       normal_offset="0"
       tang_offset="0"
       prop_units="false"
       vertical_pattern="true"
       fuse_tolerance="0" />
    <filter
       x="-0.25"
       width="1.5"
       y="-0.25"
       height="1.5"
       inkscape:menu="Non-realistic 3D Shaders"
       inkscape:menu-tooltip="Satiny metal surface effect"
       inkscape:label="Brushed Metal"
       style="color-interpolation-filters:sRGB"
       id="filter4861">
      <feGaussianBlur
         in="SourceGraphic"
         stdDeviation="5"
         result="result8"
         id="feGaussianBlur4843" />
      <feComposite
         in2="result8"
         operator="xor"
         result="result19"
         id="feComposite4845" />
      <feComposite
         k2="1"
         operator="arithmetic"
         result="result17"
         in2="result8"
         id="feComposite4847"
         k1="0"
         k3="0"
         k4="0" />
      <feOffset
         result="result18"
         in="result8"
         id="feOffset4849" />
      <feDisplacementMap
         in2="result17"
         in="result18"
         xChannelSelector="A"
         yChannelSelector="A"
         scale="100"
         result="result4"
         id="feDisplacementMap4851" />
      <feComposite
         in2="result4"
         result="result2"
         operator="arithmetic"
         in="SourceGraphic"
         k1="0"
         k3="1"
         id="feComposite4853"
         k2="0"
         k4="0" />
      <feComposite
         in2="SourceGraphic"
         result="fbSourceGraphic"
         in="result2"
         operator="in"
         id="feComposite4855" />
      <feComposite
         in2="SourceGraphic"
         operator="in"
         result="result15"
         id="feComposite4857" />
      <feComposite
         result="result16"
         in2="SourceGraphic"
         operator="in"
         in="result15"
         id="feComposite4859" />
    </filter>
    <filter
       inkscape:menu="Shadows and Glows"
       inkscape:menu-tooltip="Cut out, add inner shadow and colorize some parts of an image"
       style="color-interpolation-filters:sRGB"
       inkscape:label="Emergence"
       id="filter4991">
      <feColorMatrix
         values="0 0 0 0 0 0 0 0 0 0 0 0 0 0 0 0.21 0.72 0.07 0 0 "
         result="result1"
         id="feColorMatrix4963" />
      <feColorMatrix
         values="1 0 0 0 0 0 1 0 0 0 0 0 1 0 0 0 0 0 2 0 "
         result="result9"
         id="feColorMatrix4965" />
      <feComposite
         in2="result9"
         in="SourceGraphic"
         operator="in"
         result="result4"
         id="feComposite4967" />
      <feFlood
         result="result2"
         flood-color="rgb(0,0,0)"
         id="feFlood4969" />
      <feComposite
         in2="result9"
         operator="in"
         result="result10"
         id="feComposite4971" />
      <feComposite
         in2="result4"
         operator="atop"
         id="feComposite4973" />
      <feGaussianBlur
         stdDeviation="3"
         result="result8"
         id="feGaussianBlur4975" />
      <feOffset
         dx="3"
         dy="3"
         result="result3"
         in="result8"
         id="feOffset4977" />
      <feFlood
         flood-opacity="1"
         flood-color="rgb(219,173,62)"
         result="result5"
         id="feFlood4979" />
      <feMerge
         result="result6"
         id="feMerge4987">
        <feMergeNode
           in="result5"
           id="feMergeNode4981" />
        <feMergeNode
           in="result3"
           id="feMergeNode4983" />
        <feMergeNode
           in="result4"
           id="feMergeNode4985" />
      </feMerge>
      <feComposite
         in2="SourceGraphic"
         operator="in"
         result="result7"
         id="feComposite4989" />
    </filter>
  </defs>
  <sodipodi:namedview
     id="base"
     pagecolor="#ffffff"
     bordercolor="#666666"
     borderopacity="1.0"
     inkscape:pageopacity="0.0"
     inkscape:pageshadow="2"
     inkscape:zoom="3.959798"
     inkscape:cx="13.407637"
     inkscape:cy="44.503768"
     inkscape:document-units="mm"
     inkscape:current-layer="layer1"
     showgrid="false"
     fit-margin-top="0"
     fit-margin-left="0"
     fit-margin-right="0"
     fit-margin-bottom="0"
     inkscape:window-width="1848"
     inkscape:window-height="1016"
     inkscape:window-x="72"
     inkscape:window-y="27"
     inkscape:window-maximized="1" />
  <metadata
     id="metadata5">
    <rdf:RDF>
      <cc:Work
         rdf:about="">
        <dc:format>image/svg+xml</dc:format>
        <dc:type
           rdf:resource="http://purl.org/dc/dcmitype/StillImage" />
        <dc:title></dc:title>
      </cc:Work>
    </rdf:RDF>
  </metadata>
  <g
     inkscape:label="Ebene 1"
     inkscape:groupmode="layer"
     id="layer1"
     transform="translate(-20.149685,-98.868516)">
    <g
       id="g5808">
      <ellipse
         ry="13.539397"
         rx="13.731804"
         cy="112.40791"
         cx="33.881489"
         id="circle4731"
         style="opacity:1;fill:#008c61;fill-opacity:1;stroke:none;stroke-width:0.99999988;stroke-linecap:round;stroke-linejoin:round;stroke-miterlimit:4;stroke-dasharray:none;stroke-dashoffset:0;stroke-opacity:1" />
      <path
         inkscape:connector-curvature="0"
         style="opacity:1;fill:#ffffff;fill-opacity:1;stroke:none;stroke-width:0.99999988;stroke-linecap:round;stroke-linejoin:round;stroke-miterlimit:4;stroke-dasharray:none;stroke-dashoffset:0;stroke-opacity:1"
         d="m 33.881071,99.825231 a 12.873565,12.693184 0 0 0 -12.873391,12.693229 12.873565,12.693184 0 0 0 0.919528,4.69814 19.968333,6.5440426 0 0 1 11.725088,-1.25677 19.968333,6.5440426 0 0 1 12.139276,1.35822 12.873565,12.693184 0 0 0 0.963113,-4.79959 12.873565,12.693184 0 0 0 -12.873614,-12.693229 z"
         id="path4733" />
      <path
         inkscape:connector-curvature="0"
         id="path815-3"
         d="m 33.881072,99.403079 c -7.225519,9.6e-5 -13.087062,5.780211 -13.087036,12.904491 0.0017,1.63612 0.31819,3.25716 0.934072,4.77642 a 0.21409687,0.211097 0 0 0 0.249197,0.12697 c 3.384301,-0.80889 7.474791,-1.24788 11.674639,-1.25079 4.376462,0.003 8.629034,0.47915 12.086903,1.35138 a 0.21409687,0.211097 0 0 0 0.250869,-0.1245 c 0.644213,-1.54847 0.976866,-3.2058 0.979228,-4.87948 2.6e-5,-7.12437 -5.862265,-12.904518 -13.087872,-12.904491 z m 0,0.422152 c 6.994216,-2.6e-5 12.659747,5.586119 12.659721,12.482339 -0.0023,1.56274 -0.317557,3.10683 -0.89895,4.55957 -3.468127,-0.85399 -7.659087,-1.32626 -11.989062,-1.32912 a 0.21409687,0.211097 0 0 0 -8.57e-4,0 c -4.153864,0.003 -8.184202,0.43768 -11.573455,1.22853 -0.554849,-1.4241 -0.85472,-2.93247 -0.856302,-4.45898 -2.5e-5,-6.89613 5.664755,-12.482246 12.658885,-12.482339 z"
         style="color:#000000;font-style:normal;font-variant:normal;font-weight:normal;font-stretch:normal;font-size:medium;line-height:normal;font-family:sans-serif;font-variant-ligatures:normal;font-variant-position:normal;font-variant-caps:normal;font-variant-numeric:normal;font-variant-alternates:normal;font-feature-settings:normal;text-indent:0;text-align:start;text-decoration:none;text-decoration-line:none;text-decoration-style:solid;text-decoration-color:#000000;letter-spacing:normal;word-spacing:normal;text-transform:none;writing-mode:lr-tb;direction:ltr;text-orientation:mixed;dominant-baseline:auto;baseline-shift:baseline;text-anchor:start;white-space:normal;shape-padding:0;clip-rule:nonzero;display:inline;overflow:visible;visibility:visible;opacity:1;isolation:auto;mix-blend-mode:normal;color-interpolation:sRGB;color-interpolation-filters:linearRGB;solid-color:#000000;solid-opacity:1;vector-effect:none;fill:#e6e6e6;fill-opacity:1;fill-rule:nonzero;stroke:none;stroke-width:0.99999988;stroke-linecap:round;stroke-linejoin:round;stroke-miterlimit:4;stroke-dasharray:none;stroke-dashoffset:0;stroke-opacity:1;color-rendering:auto;image-rendering:auto;shape-rendering:auto;text-rendering:auto;enable-background:accumulate" />
      <g
         transform="matrix(0.42815095,0,0,0.42215182,19.37495,71.156835)"
         style="stroke-width:2.35216188"
         id="g4707">
        <path
           style="opacity:1;fill:#008cff;fill-opacity:1;stroke:#000000;stroke-width:0;stroke-linecap:round;stroke-linejoin:round;stroke-miterlimit:4;stroke-dasharray:none;stroke-dashoffset:0;stroke-opacity:1"
           d="m 134.90004,360.28295 c -8.44527,-1.85855 -15.81765,-5.4128 -22.98097,-11.07921 -1.94455,-1.5382 -8.08122,-7.36365 -13.637063,-12.94545 -13.097804,-13.15902 -18.432688,-16.8454 -28.284271,-19.54431 -3.362438,-0.92116 -5.396954,-1.109 -12.121831,-1.11918 -9.069464,-0.0137 -16.035543,1.15868 -25.885159,4.35656 -2.847367,0.92445 -5.177031,1.59415 -5.177031,1.48823 0,-0.58384 5.35573,-10.44086 7.192883,-13.23823 2.054983,-3.12905 2.347083,-3.35928 6.22927,-4.90988 10.793922,-4.31123 22.825932,-6.8212 32.539787,-6.78804 7.45682,0.0254 12.247145,1.07905 18.435284,4.05474 6.018979,2.89434 9.554651,5.80174 20.960661,17.23605 5.69474,5.70886 11.93132,11.55213 13.85907,12.98505 8.07458,6.00192 16.52818,9.60417 25.8281,11.00588 12.88086,1.94144 23.92191,0.26012 52.99433,-8.06992 15.92696,-4.56351 26.60288,-7.42542 26.81652,-7.18876 0.32532,0.36039 3.33979,9.47066 4.00695,12.10974 0.43836,1.73399 0.89885,3.50274 1.02332,3.93054 0.19025,0.65393 -0.50557,0.79741 -4.36872,0.90083 -8.54913,0.22887 -19.97342,2.65527 -39.34736,8.35699 -26.16108,7.69916 -32.06208,8.91999 -44.44671,9.19538 -7.80584,0.17357 -10.0506,0.0523 -13.63706,-0.73701 z"
           id="path4695"
           inkscape:connector-curvature="0"
           transform="scale(0.26458333)" />
        <path
           style="opacity:1;fill:#008cff;fill-opacity:1;stroke:#000000;stroke-width:0;stroke-linecap:round;stroke-linejoin:round;stroke-miterlimit:4;stroke-dasharray:none;stroke-dashoffset:0;stroke-opacity:1"
           d="m 133.13227,385.97468 c -7.74866,-1.39313 -16.22862,-4.82678 -22.72843,-9.20306 -4.53134,-3.05093 -7.69535,-5.83055 -17.425134,-15.30819 -10.251311,-9.98566 -14.180051,-13.09393 -20.455589,-16.18372 -10.580639,-5.20941 -22.780618,-6.06064 -38.385797,-2.6783 -3.818864,0.82772 -12.514392,3.29592 -15.079763,4.28035 -0.951166,0.36499 0.477283,-5.87662 3.188386,-13.93166 3.394691,-10.08607 2.720229,-9.23715 8.974793,-11.29622 10.942913,-3.60252 18.338289,-4.98584 26.60386,-4.9763 6.702598,0.008 10.865462,0.70411 15.973647,2.67211 6.787382,2.61495 10.946962,5.84651 23.979678,18.62973 7.194749,7.05701 13.700279,12.97171 16.003289,14.54989 9.61845,6.59117 21.2463,10.22029 32.74626,10.22029 10.00355,0 20.61032,-2.14226 44.1835,-8.9238 24.76929,-7.12564 34.68709,-9.25894 43.04516,-9.25894 h 3.51957 l 0.84421,5.08327 c 0.46432,2.7958 0.95905,6.8301 1.09939,8.9651 0.14035,2.13501 0.35219,5.27284 0.47076,6.97296 l 0.21558,3.09112 -5.65697,0.0358 c -10.27306,0.0649 -19.84589,1.95574 -43.5377,8.59955 -27.14154,7.61119 -32.82747,8.72455 -45.70941,8.95033 -5.13915,0.0901 -10.48033,-0.0406 -11.86929,-0.29027 z"
           id="path4697"
           inkscape:connector-curvature="0"
           transform="scale(0.26458333)" />
        <path
           style="opacity:1;fill:#008cff;fill-opacity:1;stroke:#000000;stroke-width:0;stroke-linecap:round;stroke-linejoin:round;stroke-miterlimit:4;stroke-dasharray:none;stroke-dashoffset:0;stroke-opacity:1"
           d="M 223.91632,407.42467 C 166.68512,394.22162 88.057334,394.02218 29.87638,406.9325 c -4.496049,0.99767 -5.862426,1.14217 -6.165378,0.65198 -1.532804,-2.48013 -4.986648,-15.89257 -6.277925,-24.37929 -1.506979,-9.9044 -0.882717,-31.87085 0.974658,-34.29614 1.370865,-1.79003 18.862327,-6.12164 27.534868,-6.81878 13.301112,-1.0692 23.410575,1.66691 33.327869,9.02014 2.260085,1.67574 8.378548,7.21706 13.596592,12.31403 9.924226,9.69395 15.280146,14.0443 21.435546,17.411 10.43153,5.70554 23.20414,8.04648 36.51152,6.69176 10.73694,-1.09305 17.51674,-2.6231 42.67475,-9.63073 21.91542,-6.10442 28.64837,-7.47169 39.01715,-7.92325 l 6.9448,-0.30245 -0.009,3.98929 c -0.01,4.21746 -0.9536,11.73945 -2.21167,17.62635 -1.4987,7.01293 -5.04836,18.00264 -5.77032,17.86483 -0.18838,-0.036 -3.58285,-0.81291 -7.54326,-1.72657 z"
           id="path4699"
           inkscape:connector-curvature="0"
           transform="scale(0.26458333)" />
        <path
           style="opacity:1;fill:#008cff;fill-opacity:1;stroke:#000000;stroke-width:0;stroke-linecap:round;stroke-linejoin:round;stroke-miterlimit:4;stroke-dasharray:none;stroke-dashoffset:0;stroke-opacity:1"
           d="m 150.05233,340.24766 c -13.59904,-2.91347 -19.54073,-6.6927 -36.11296,-22.96976 -12.3229,-12.10342 -15.366646,-14.59343 -21.789504,-17.82545 -12.144676,-6.11128 -28.880606,-5.64769 -48.916315,1.35501 -2.775248,0.96998 -5.116758,1.69275 -5.203357,1.60615 -0.0866,-0.0866 1.033301,-1.60401 2.488666,-3.37203 19.042407,-23.13327 42.698964,-36.73035 71.65274,-41.18385 7.90769,-1.21631 23.77628,-1.21228 31.81981,0.008 7.16775,1.08749 17.83851,3.83584 23.73571,6.11334 25.94563,10.02021 47.2849,29.18069 59.71153,53.61483 4.22243,8.30246 4.49598,7.38605 -2.74816,9.2063 -3.41018,0.85688 -11.65515,3.16305 -18.32216,5.12482 -15.14992,4.45786 -26.70569,7.31699 -33.65239,8.32628 -6.57493,0.95528 -18.19627,0.95337 -22.66361,-0.004 z"
           id="path4701"
           inkscape:connector-curvature="0"
           transform="scale(0.26458333)" />
      </g>
      <g
         style="stroke-width:2.51486254"
         transform="matrix(-0.40045141,0,0,0.3948404,54.175519,61.883303)"
         id="g4727">
        <g
           style="stroke-width:2.51486254"
           transform="matrix(-1,0,0,1,101.51317,0)"
           id="g4721">
          <path
             inkscape:connector-curvature="0"
             id="path4717"
             transform="scale(0.26458333)"
             d="m 191.57031,437.85938 c -2.56134,0.062 -5.10319,0.37537 -7.6289,0.88867 v 122.19531 h 40.42578 c -9.35332,-34.00876 -18.5491,-68.06037 0,-109.50977 -11.36449,-9.99976 -22.24201,-13.82961 -32.79688,-13.57421 z"
             style="opacity:1;fill:#d45500;fill-opacity:1;stroke:none;stroke-width:9.50499439;stroke-linecap:round;stroke-linejoin:round;stroke-miterlimit:4;stroke-dasharray:none;stroke-dashoffset:0;stroke-opacity:1" />
          <rect
             y="130.97224"
             x="49.24226"
             height="1.7008928"
             width="9.6383915"
             id="rect4719"
             style="opacity:1;fill:#d45500;fill-opacity:1;stroke:none;stroke-width:2.51486254;stroke-linecap:round;stroke-linejoin:round;stroke-miterlimit:4;stroke-dasharray:none;stroke-dashoffset:0;stroke-opacity:1" />
        </g>
        <path
           style="opacity:1;fill:#d45500;fill-opacity:1;stroke:none;stroke-width:2.51486254;stroke-linecap:round;stroke-linejoin:round;stroke-miterlimit:4;stroke-dasharray:none;stroke-dashoffset:0;stroke-opacity:1"
           d="m 50.368934,115.85029 c -0.677687,0.0164 -1.350219,0.0993 -2.018479,0.23513 v 32.33084 h 10.695987 c -2.474732,-8.99815 -4.907783,-18.00764 0,-28.97446 -3.006855,-2.64577 -5.884865,-3.65908 -8.677508,-3.59151 z"
           id="path4723"
           inkscape:connector-curvature="0" />
        <rect
           style="opacity:1;fill:#d45500;fill-opacity:1;stroke:none;stroke-width:2.51486254;stroke-linecap:round;stroke-linejoin:round;stroke-miterlimit:4;stroke-dasharray:none;stroke-dashoffset:0;stroke-opacity:1"
           id="rect4725"
           width="9.6383915"
           height="1.7008928"
           x="49.24226"
           y="130.97224" />
      </g>
      <g
         id="g4881"
         transform="matrix(-0.40045141,0,0,0.3948404,54.175519,61.883303)"
         style="stroke-width:2.51486254;filter:url(#filter4991)">
        <g
           id="g4875"
           transform="matrix(-1,0,0,1,101.51317,0)"
           style="stroke-width:2.51486254">
          <path
             style="opacity:1;fill:#d45500;fill-opacity:1;stroke:none;stroke-width:9.50499439;stroke-linecap:round;stroke-linejoin:round;stroke-miterlimit:4;stroke-dasharray:none;stroke-dashoffset:0;stroke-opacity:1"
             d="m 191.57031,437.85938 c -2.56134,0.062 -5.10319,0.37537 -7.6289,0.88867 v 122.19531 h 40.42578 c -9.35332,-34.00876 -18.5491,-68.06037 0,-109.50977 -11.36449,-9.99976 -22.24201,-13.82961 -32.79688,-13.57421 z"
             transform="scale(0.26458333)"
             id="path4871"
             inkscape:connector-curvature="0" />
          <rect
             style="opacity:1;fill:#d45500;fill-opacity:1;stroke:none;stroke-width:2.51486254;stroke-linecap:round;stroke-linejoin:round;stroke-miterlimit:4;stroke-dasharray:none;stroke-dashoffset:0;stroke-opacity:1"
             id="rect4873"
             width="9.6383915"
             height="1.7008928"
             x="49.24226"
             y="130.97224" />
        </g>
        <path
           inkscape:connector-curvature="0"
           id="path4877"
           d="m 50.368934,115.85029 c -0.677687,0.0164 -1.350219,0.0993 -2.018479,0.23513 v 32.33084 h 10.695987 c -2.474732,-8.99815 -4.907783,-18.00764 0,-28.97446 -3.006855,-2.64577 -5.884865,-3.65908 -8.677508,-3.59151 z"
           style="opacity:1;fill:#d45500;fill-opacity:1;stroke:none;stroke-width:2.51486254;stroke-linecap:round;stroke-linejoin:round;stroke-miterlimit:4;stroke-dasharray:none;stroke-dashoffset:0;stroke-opacity:1" />
        <rect
           y="130.97224"
           x="49.24226"
           height="1.7008928"
           width="9.6383915"
           id="rect4879"
           style="opacity:1;fill:#d45500;fill-opacity:1;stroke:none;stroke-width:2.51486254;stroke-linecap:round;stroke-linejoin:round;stroke-miterlimit:4;stroke-dasharray:none;stroke-dashoffset:0;stroke-opacity:1" />
      </g>
    </g>
  </g>
  <g
     inkscape:groupmode="layer"
     id="layer2"
     inkscape:label="primitives"
     style="display:none"
     transform="translate(-20.149685,-98.868516)">
    <g
       id="g4664"
       transform="matrix(1.6719036,0,0,1,47.395257,45.21459)"
       style="stroke-width:0.77338254">
      <path
         inkscape:connector-curvature="0"
         id="path4653"
         d="m 21.114293,77.972621 c 13.263584,-9.665007 11.357775,7.048939 19.510674,9.087164 5.706542,1.426634 13.602986,-7.671553 18.17433,-3.608138"
         style="fill:none;fill-rule:evenodd;stroke:#000000;stroke-width:0.20462412px;stroke-linecap:butt;stroke-linejoin:miter;stroke-opacity:1" />
      <path
         style="fill:none;fill-rule:evenodd;stroke:#000000;stroke-width:0.20462412px;stroke-linecap:butt;stroke-linejoin:miter;stroke-opacity:1"
         d="m 19.776886,84.654359 c 13.781568,-9.665007 11.801331,7.048939 20.272626,9.087164 5.9294,1.426634 14.134225,-7.671553 18.884094,-3.608138"
         id="path4657"
         inkscape:connector-curvature="0" />
      <path
         style="fill:none;fill-rule:evenodd;stroke:#000000;stroke-width:0.20462412px;stroke-linecap:butt;stroke-linejoin:miter;stroke-opacity:1"
         d="m 23.386084,72.62723 c 13.263584,-9.665007 11.357775,7.048939 19.510674,9.087164 5.706542,1.426634 13.602986,-7.671553 18.17433,-3.608138"
         id="path4659"
         inkscape:connector-curvature="0" />
    </g>
    <g
       id="g4749">
      <circle
         style="opacity:1;fill:#008c61;fill-opacity:1;stroke:none;stroke-width:0.99999994;stroke-linecap:round;stroke-linejoin:round;stroke-miterlimit:4;stroke-dasharray:none;stroke-dashoffset:0;stroke-opacity:1"
         id="circle817"
         cx="109.1796"
         cy="79.041695"
         r="32.072342" />
      <path
         inkscape:connector-curvature="0"
         transform="scale(0.26458333)"
         id="path815"
         d="m 412.64648,185.09766 a 113.64215,113.64215 0 0 0 -113.64062,113.64257 113.64215,113.64215 0 0 0 8.11719,42.0625 176.27163,58.588848 0 0 1 103.5039,-11.25195 176.27163,58.588848 0 0 1 107.16016,12.16016 113.64215,113.64215 0 0 0 8.50195,-42.97071 113.64215,113.64215 0 0 0 -113.64258,-113.64257 z"
         style="opacity:1;fill:#008cff;fill-opacity:1;stroke:#e6e6e6;stroke-width:3.77952743;stroke-linecap:round;stroke-linejoin:round;stroke-miterlimit:4;stroke-dasharray:none;stroke-dashoffset:0;stroke-opacity:1" />
      <g
         style="stroke-width:1.06917071"
         transform="matrix(-0.93530426,0,0,0.93530426,101.70394,7.6175923)"
         id="g4580">
        <g
           style="stroke-width:1.06917071"
           transform="translate(-57.863852,-55.458427)"
           id="g4590">
          <g
             style="stroke-width:1.06917071"
             transform="matrix(-1,0,0,1,101.51317,0)"
             id="g4574">
            <path
               inkscape:connector-curvature="0"
               id="rect824"
               transform="scale(0.26458333)"
               d="m 191.57031,437.85938 c -2.56134,0.062 -5.10319,0.37537 -7.6289,0.88867 v 122.19531 h 40.42578 c -9.35332,-34.00876 -18.5491,-68.06037 0,-109.50977 -11.36449,-9.99976 -22.24201,-13.82961 -32.79688,-13.57421 z"
               style="opacity:1;fill:#d45500;fill-opacity:1;stroke:none;stroke-width:4.04096079;stroke-linecap:round;stroke-linejoin:round;stroke-miterlimit:4;stroke-dasharray:none;stroke-dashoffset:0;stroke-opacity:1" />
            <rect
               y="130.97224"
               x="49.24226"
               height="1.7008928"
               width="9.6383915"
               id="rect827"
               style="opacity:1;fill:#d45500;fill-opacity:1;stroke:none;stroke-width:1.06917071;stroke-linecap:round;stroke-linejoin:round;stroke-miterlimit:4;stroke-dasharray:none;stroke-dashoffset:0;stroke-opacity:1" />
          </g>
          <path
             style="opacity:1;fill:#d45500;fill-opacity:1;stroke:none;stroke-width:1.06917071;stroke-linecap:round;stroke-linejoin:round;stroke-miterlimit:4;stroke-dasharray:none;stroke-dashoffset:0;stroke-opacity:1"
             d="m 50.368934,115.85029 c -0.677687,0.0164 -1.350219,0.0993 -2.018479,0.23513 v 32.33084 h 10.695987 c -2.474732,-8.99815 -4.907783,-18.00764 0,-28.97446 -3.006855,-2.64577 -5.884865,-3.65908 -8.677508,-3.59151 z"
             id="path4576"
             inkscape:connector-curvature="0" />
          <rect
             style="opacity:1;fill:#d45500;fill-opacity:1;stroke:none;stroke-width:1.06917071;stroke-linecap:round;stroke-linejoin:round;stroke-miterlimit:4;stroke-dasharray:none;stroke-dashoffset:0;stroke-opacity:1"
             id="rect4578"
             width="9.6383915"
             height="1.7008928"
             x="49.24226"
             y="130.97224" />
        </g>
      </g>
    </g>
  </g>
</svg>
